<?xml version="1.0" encoding="UTF-8" standalone="no"?>
<!-- Generator: Adobe Illustrator 25.0.1, SVG Export Plug-In . SVG Version: 6.00 Build 0)  -->

<svg
   version="1.0"
   id="katman_1"
   x="0px"
   y="0px"
   viewBox="0 0 963.5061 225"
   xml:space="preserve"
   sodipodi:docname="SmartLuxuryColorLogo.svg"
   inkscape:version="1.2.2 (732a01da63, 2022-12-09)"
   width="963.5061"
   height="225"
   inkscape:export-filename="SmartLuxuryColorLogo.png"
   inkscape:export-xdpi="96"
   inkscape:export-ydpi="96"
   xmlns:inkscape="http://www.inkscape.org/namespaces/inkscape"
   xmlns:sodipodi="http://sodipodi.sourceforge.net/DTD/sodipodi-0.dtd"
   xmlns="http://www.w3.org/2000/svg"
   xmlns:svg="http://www.w3.org/2000/svg"><defs
   id="defs426">
	

		
	
			
		
				
			</defs><sodipodi:namedview
   id="namedview424"
   pagecolor="#ffffff"
   bordercolor="#000000"
   borderopacity="0.25"
   inkscape:showpageshadow="2"
   inkscape:pageopacity="0.0"
   inkscape:pagecheckerboard="0"
   inkscape:deskcolor="#d1d1d1"
   showgrid="false"
   inkscape:zoom="1"
   inkscape:cx="463"
   inkscape:cy="158"
   inkscape:window-width="1920"
   inkscape:window-height="974"
   inkscape:window-x="-11"
   inkscape:window-y="-11"
   inkscape:window-maximized="1"
   inkscape:current-layer="katman_1" />
<style
   type="text/css"
   id="style404">
	.st0{fill:#627EEA;}
	.st1{fill:#FFFFFF;fill-opacity:0.602;}
	.st2{fill:#FFFFFF;}
	.st3{fill:#FFFFFF;fill-opacity:0.2;}
</style>
<desc
   id="desc406">Created with Sketch.</desc>

<g
   id="g508"
   transform="translate(-60.390992,-375)"><g
     aria-label="smart"
     id="text640"
     style="font-weight:900;font-size:96px;font-family:Montserrat;-inkscape-font-specification:'Montserrat, Heavy';fill:#627eea"><path
       d="m 84.198992,520.13999 q -6.72,0 -13.248,-1.44 -6.528,-1.44 -10.56,-3.744 l 5.952,-14.304 q 3.744,2.208 8.64,3.456 4.992,1.248 9.696,1.248 3.936,0 5.28,-0.672 1.44,-0.672 1.44,-1.824 0,-1.152 -1.632,-1.632 -1.632,-0.576 -4.32,-0.864 -2.688,-0.288 -5.952,-0.672 -3.168,-0.48 -6.432,-1.344 -3.264,-0.864 -5.952,-2.592 -2.688,-1.728 -4.32,-4.608 -1.632,-2.976 -1.632,-7.488 0,-4.992 2.976,-9.024 3.072,-4.032 9.024,-6.432 6.048,-2.496 14.88,-2.496 5.76,0 11.52,1.056 5.759998,1.056 9.887998,3.264 l -5.952,14.304 q -4.031998,-2.208 -7.967998,-2.976 -3.84,-0.864 -7.2,-0.864 -4.128,0 -5.664,0.768 -1.44,0.768 -1.44,1.728 0,1.152 1.632,1.728 1.632,0.576 4.32,0.864 2.688,0.288 5.856,0.768 3.264,0.384 6.432,1.344 3.263998,0.864 5.951998,2.592 2.688,1.728 4.32,4.704 1.632,2.88 1.632,7.392 0,4.704 -2.976,8.832 -2.976,4.032 -9.023998,6.528 -6.048,2.4 -15.168,2.4 z"
       id="path462" /><path
       d="m 187.39904,465.70799 q 5.952,0 10.656,2.496 4.8,2.4 7.488,7.584 2.784,5.184 2.784,13.44 v 29.952 h -21.696 v -26.208 q 0,-4.896 -1.632,-6.912 -1.632,-2.112 -4.224,-2.112 -1.92,0 -3.456,0.96 -1.536,0.96 -2.496,3.072 -0.864,2.016 -0.864,5.568 v 25.632 h -21.696 v -26.208 q 0,-4.896 -1.536,-6.912 -1.536,-2.112 -4.32,-2.112 -1.92,0 -3.456,0.96 -1.536,0.96 -2.496,3.072 -0.864,2.016 -0.864,5.568 v 25.632 h -21.696 v -52.512 h 20.64 v 15.072 l -4.224,-4.224 q 2.976,-5.952 7.968,-8.832 4.992,-2.976 11.136,-2.976 6.912,0 12.192,3.648 5.376,3.552 7.2,11.328 l -6.624,-1.056 q 2.88,-6.528 8.352,-10.176 5.568,-3.744 12.864,-3.744 z"
       id="path464" /><path
       d="m 249.51113,519.17999 v -9.312 l -1.536,-2.496 v -17.664 q 0,-3.84 -2.4,-5.856 -2.304,-2.016 -7.584,-2.016 -3.552,0 -7.2,1.152 -3.648,1.056 -6.24,2.976 l -6.912,-14.304 q 4.608,-2.88 11.04,-4.416 6.432,-1.536 12.576,-1.536 13.536,0 20.928,6.048 7.488,6.048 7.488,19.2 v 28.224 z m -14.88,0.96 q -6.432,0 -10.752,-2.208 -4.32,-2.208 -6.528,-5.856 -2.208,-3.744 -2.208,-8.256 0,-5.088 2.592,-8.64 2.592,-3.552 7.872,-5.376 5.376,-1.824 13.536,-1.824 h 10.944 v 10.464 h -7.488 q -3.456,0 -5.088,1.152 -1.536,1.056 -1.536,3.264 0,1.824 1.344,3.072 1.44,1.152 3.84,1.152 2.208,0 4.032,-1.152 1.92,-1.248 2.784,-3.84 l 2.784,6.432 q -1.248,5.856 -5.28,8.736 -4.032,2.88 -10.848,2.88 z"
       id="path466" /><path
       d="m 279.07913,519.17999 v -52.512 h 20.64 v 15.84 l -3.36,-4.512 q 2.4,-6.144 7.68,-9.216 5.28,-3.072 12.672,-3.072 v 19.2 q -1.44,-0.192 -2.592,-0.288 -1.056,-0.096 -2.208,-0.096 -4.896,0 -8.064,2.592 -3.072,2.496 -3.072,8.736 v 23.328 z"
       id="path468" /><path
       d="m 349.63901,520.13999 q -10.848,0 -16.896,-5.184 -6.048,-5.28 -6.048,-16.128 v -43.968 h 21.696 v 43.776 q 0,2.4 1.248,3.744 1.344,1.344 3.264,1.344 2.784,0 4.896,-1.44 l 5.184,15.072 q -2.496,1.44 -6.048,2.112 -3.456,0.672 -7.296,0.672 z m -30.144,-34.752 v -15.84 h 39.648 v 15.84 z"
       id="path470" /></g><g
     aria-label="Luxury"
     id="text1304"
     style="font-size:163.884px;font-family:Evafiya;-inkscape-font-specification:'Evafiya, Normal';stroke-width:1.70713"><path
       d="m 668.59702,538.00826 q 6.06371,0 10.32469,-4.26098 v 5.89982 h -60.14542 v -99.96924 q 0,-1.47496 -1.14719,-2.45826 -1.14719,-1.14719 -2.78603,-0.98331 v -0.81942 h 12.45518 v 0.81942 q -0.32776,0 -0.9833,0.16389 -0.65554,0 -1.80272,0.9833 -0.98331,0.81942 -0.98331,2.45826 v 92.59446 q 0,2.1305 -0.65553,3.60545 -0.49166,1.31107 -1.14719,1.63884 l -0.49165,0.32777 z"
       id="path473" /><path
       d="m 745.62236,538.17214 v 0.81942 h -12.45518 v -0.81942 h 3.76933 v -10.98022 q -4.75263,5.73594 -11.47188,8.84973 -6.55536,3.1138 -14.09402,3.1138 -9.17751,0.81942 -16.22452,-5.24429 -3.27768,-3.1138 -4.26098,-7.37478 -0.32777,-1.47496 -0.32777,-2.94991 v -55.88445 q -0.16389,-1.47495 -1.14719,-2.29437 -0.9833,-0.81942 -1.80272,-0.98331 h -0.98331 v -0.81942 h 12.45519 v 0.81942 q -1.47496,-0.16388 -2.78603,0.81942 -1.14719,0.98331 -1.14719,2.62215 v 56.04833 q 0,0.65553 0.16388,1.63884 0.16389,0.81942 1.14719,2.62214 0.98331,1.80272 2.62215,3.27768 1.63884,1.31107 4.91652,2.45826 3.44156,0.9833 7.86643,0.9833 6.06371,0 10.98023,-1.31107 4.91652,-1.47495 7.70255,-3.44156 2.94991,-2.13049 4.42486,-3.76933 1.63884,-1.80273 1.96661,-2.94992 v -55.55667 q 0,-1.63884 -0.9833,-2.45826 -0.81942,-0.98331 -1.80273,-0.98331 l -0.9833,-0.16388 v -0.65554 h 12.45518 v 0.65554 q -1.47495,-0.16389 -2.78602,0.81942 -1.14719,0.9833 -1.14719,2.62214 v 67.19244 q 0.16388,1.47496 1.31107,2.45826 1.14719,0.98331 2.62214,0.81942 z"
       id="path475" /><path
       d="m 813.96188,534.40281 q 1.31108,1.96661 2.78603,2.94991 1.47496,0.98331 2.29438,0.81942 h 0.81942 v 0.81942 h -12.45519 v -0.81942 q 1.47496,0 1.63884,-0.81942 0.32777,-0.9833 -0.16388,-1.9666 l -0.49165,-0.98331 -21.63269,-31.7935 -20.15773,31.62962 q -0.98331,1.63884 -0.98331,2.62214 0.16389,0.81942 0.98331,1.14719 0.81942,0.16388 1.63884,0.32777 0.81942,0 0.9833,-0.16389 v 0.81942 h -12.45518 v -0.81942 q 4.91652,0.16389 7.86643,-3.93321 l 21.14104,-32.94069 -23.43542,-33.10457 q -1.31107,-1.9666 -2.78602,-2.94991 -1.47496,-0.9833 -2.29438,-0.9833 h -0.81942 v -0.65554 h 12.45518 v 0.65554 q -1.47495,0 -1.80272,0.9833 -0.32777,0.81942 0.16388,1.80273 l 0.49166,0.9833 21.4688,30.15466 20.64938,-29.99078 q 0.98331,-1.47495 0.81942,-2.45826 0,-0.9833 -0.81942,-1.14718 -0.81942,-0.16389 -1.63884,-0.32777 -0.65553,-0.16389 -0.9833,0 v -0.65554 h 12.45518 v 0.65554 q -4.91652,0 -7.86643,3.93321 l -21.63269,31.30185 z"
       id="path477" /><path
       d="m 889.34845,538.17214 v 0.81942 h -12.45519 v -0.81942 h 3.76933 v -10.98022 q -4.75263,5.73594 -11.47188,8.84973 -6.55536,3.1138 -14.09402,3.1138 -9.17751,0.81942 -16.22452,-5.24429 -3.27768,-3.1138 -4.26098,-7.37478 -0.32777,-1.47496 -0.32777,-2.94991 v -55.88445 q -0.16388,-1.47495 -1.14719,-2.29437 -0.9833,-0.81942 -1.80272,-0.98331 h -0.98331 v -0.81942 h 12.45519 v 0.81942 q -1.47496,-0.16388 -2.78603,0.81942 -1.14719,0.98331 -1.14719,2.62215 v 56.04833 q 0,0.65553 0.16389,1.63884 0.16388,0.81942 1.14718,2.62214 0.98331,1.80272 2.62215,3.27768 1.63884,1.31107 4.91652,2.45826 3.44156,0.9833 7.86643,0.9833 6.06371,0 10.98023,-1.31107 4.91652,-1.47495 7.70255,-3.44156 2.94991,-2.13049 4.42487,-3.76933 1.63884,-1.80273 1.9666,-2.94992 v -55.55667 q 0,-1.63884 -0.9833,-2.45826 -0.81942,-0.98331 -1.80272,-0.98331 l -0.98331,-0.16388 v -0.65554 h 12.45519 v 0.65554 q -1.47496,-0.16389 -2.78603,0.81942 -1.14719,0.9833 -1.14719,2.62214 v 67.19244 q 0.16388,1.47496 1.31107,2.45826 1.14719,0.98331 2.62215,0.81942 z"
       id="path479" /><path
       d="m 947.03553,469.01309 q 0.16388,0.49166 0.32777,1.14719 0,1.47496 -1.14719,2.62215 -0.98331,0.9833 -2.45826,0.9833 -1.47496,0 -2.45826,-0.81942 -0.98331,-0.9833 -1.14719,-2.29438 -0.16388,-1.63884 -4.26098,-3.11379 -5.24429,-1.96661 -10.48858,-0.32777 -5.24429,1.47496 -8.68585,5.89982 -3.76933,6.71925 -3.76933,14.58568 v 47.03471 q 0,1.47496 0.9833,2.45826 0.9833,0.81942 1.96661,0.9833 h 0.9833 v 0.81942 H 904.2618 v -0.81942 q 1.63884,0.16389 2.78603,-0.81942 1.14719,-0.9833 1.14719,-2.62214 v -67.02856 q 0,-1.63884 -1.31107,-2.62214 -1.14719,-0.98331 -2.62215,-0.81942 v -0.65554 h 12.45519 v 0.65554 h -3.76933 v 11.79965 q 3.60544,-9.50528 13.2746,-11.96354 9.66916,-2.62214 18.84666,2.62215 0.32777,0.16388 0.65554,0.32777 0.9833,0.81942 1.31107,1.9666 z"
       id="path481" /><path
       d="m 1023.8971,463.60492 v 0.65554 q -4.9165,-0.49165 -7.2108,3.93321 l -26.54925,70.14236 -2.45826,6.55536 q -1.80273,7.04701 -5.89983,13.2746 -3.27768,4.75264 -9.01362,6.06371 -5.24429,0.81942 -9.83304,-1.96661 -3.44156,-2.29437 -6.39148,-5.24429 -1.31107,-1.14718 -1.31107,-2.78602 0,-1.47496 0.98331,-2.62215 1.14718,-0.9833 2.62214,-0.9833 1.63884,0 2.62214,0.9833 1.14719,1.14719 1.14719,2.62215 0,0.32776 -0.16388,0.49165 -0.81942,3.44156 1.96661,5.57205 3.60544,3.27768 8.52196,2.45826 4.58876,-1.47495 7.37478,-5.24428 4.58876,-6.88313 6.39148,-14.74956 l -28.18805,-74.40334 q -1.63884,-3.93322 -5.73594,-3.93322 v -0.81942 h 12.45519 v 0.81942 q -1.47496,0 -1.96661,0.98331 -0.32777,0.81942 -0.16389,1.80272 l 0.32777,0.9833 25.89368,68.01187 25.72977,-68.01187 q 0.4917,-1.63884 -0.4916,-2.62214 -0.8195,-0.9833 -1.9666,-1.14719 l -1.3111,-0.16388 v -0.65554 z"
       id="path483" /></g><g
     id="g5471"
     transform="matrix(0.90000002,0,0,0.90000002,-147.62186,-170.40001)"><path
       sodipodi:type="star"
       style="font-variation-settings:'wght' 200;fill:#627eea;fill-opacity:1"
       id="path3261"
       inkscape:flatsided="true"
       sodipodi:sides="6"
       sodipodi:cx="207.43935"
       sodipodi:cy="123.16712"
       sodipodi:r1="118.2373"
       sodipodi:r2="59.118652"
       sodipodi:arg1="1.5707963"
       sodipodi:arg2="2.0943951"
       inkscape:rounded="0"
       inkscape:randomized="0"
       d="m 207.43935,241.40442 -102.39651,-59.11865 0,-118.237294 102.3965,-59.1186512 102.39651,59.1186462 0,118.237299 z"
       transform="matrix(1.057196,0,0,1.057196,487.95693,600.78821)" /><g
       id="g5461"
       transform="matrix(0.89999999,0,0,0.89999999,70.726106,73.100005)"><polygon
         fill="#343434"
         points="255.9231,212.32 127.9611,0 125.1661,9.5 125.1661,285.168 127.9611,287.958 "
         id="polygon3895"
         transform="matrix(0.47972376,0,0,0.47972376,645.85655,631)"
         style="fill:#c1ccf7;fill-opacity:1" /><polygon
         fill="#8c8c8c"
         points="127.962,154.158 127.962,0 0,212.32 127.962,287.959 "
         id="polygon3897"
         transform="matrix(0.47972376,0,0,0.47972376,645.85655,631)"
         style="fill:#ffffff;fill-opacity:1" /><polygon
         fill="#3c3c3b"
         points="255.9991,236.5866 127.9611,312.1866 126.3861,314.1066 126.3861,412.3056 127.9611,416.9066 "
         id="polygon3899"
         transform="matrix(0.47972376,0,0,0.47972376,645.85655,631)"
         style="fill:#c1ccf7;fill-opacity:1" /><polygon
         fill="#8c8c8c"
         points="127.962,312.1852 0,236.5852 127.962,416.9052 "
         id="polygon3901"
         transform="matrix(0.47972376,0,0,0.47972376,645.85655,631)"
         style="fill:#ffffff;fill-opacity:1" /><polygon
         fill="#141414"
         points="255.9211,212.3207 127.9611,154.1587 127.9611,287.9577 "
         id="polygon3903"
         transform="matrix(0.47972376,0,0,0.47972376,645.85655,631)"
         style="fill:#8198ee;fill-opacity:1" /><polygon
         fill="#393939"
         points="127.9609,287.9578 127.9609,154.1588 0.0009,212.3208 "
         id="polygon3905"
         transform="matrix(0.47972376,0,0,0.47972376,645.85655,631)"
         style="fill:#c1ccf7;fill-opacity:1" /></g></g></g></svg>
